<svg width="19" height="18" viewBox="0 0 19 18" fill="none" xmlns="http://www.w3.org/2000/svg">
<path d="M9.07104 18V15C5.75754 15 3.07104 12.3135 3.07104 9C3.07104 5.68612 5.75754 3 9.07104 3V0H7.18817V1.74787C6.35867 1.96275 5.58167 2.30813 4.8898 2.7735L3.76742 1.65075L1.64642 3.77213L2.78717 4.91288C2.35104 5.58187 2.02367 6.32512 1.81854 7.119H0.0710449V10.881H1.81854C2.02854 11.6925 2.36529 12.453 2.81605 13.134L1.6468 14.3036L3.76779 16.4242L4.93742 15.255C5.61954 15.7069 6.38229 16.044 7.19604 16.254V18H9.07104Z" fill="#E5E5E5"/>
<path d="M9.07104 10.875C8.0353 10.875 7.19604 10.0357 7.19604 9C7.19604 7.96463 8.0353 7.125 9.07104 7.125V5.625C7.20692 5.625 5.69604 7.13587 5.69604 9C5.69604 10.8641 7.20692 12.375 9.07104 12.375V10.875Z" fill="#E5E5E5"/>
<path d="M13.6528 18V13.9234C16.2665 12.6371 18.071 9.95512 18.071 6.84488C18.071 3.9135 16.4694 1.36088 14.0968 0V6.65287L10.1792 10.0883V18H13.6528Z" fill="#E5E5E5"/>
</svg>
