<svg width="25" height="10" viewBox="0 0 25 10" fill="none" xmlns="http://www.w3.org/2000/svg">
<path fill-rule="evenodd" clip-rule="evenodd" d="M20.9975 0.5H1.50246C0.672674 0.5 0 1.16802 0 2.00006V8.49994C0 9.3284 0.67338 10 1.50246 10H20.9975C21.8273 10 22.5 9.33198 22.5 8.49994V2.00006C22.5 1.1716 21.8266 0.5 20.9975 0.5ZM0.5 2.00006C0.5 1.44576 0.947213 1 1.50246 1H20.9975C21.5509 1 22 1.4482 22 2.00006V8.49994C22 9.05424 21.5528 9.5 20.9975 9.5H1.50246C0.949064 9.5 0.5 9.0518 0.5 8.49994V2.00006Z" fill="white"/>
<path fill-rule="evenodd" clip-rule="evenodd" d="M1.5 1.5C1.22386 1.5 1 1.72386 1 2V8.5C1 8.77614 1.22386 9 1.5 9H10V1.5H1.5Z" fill="white"/>
<path fill-rule="evenodd" clip-rule="evenodd" d="M24.5 5.25C24.5 6.14064 23.8481 6.87745 23 7V3.5C23.8481 3.62255 24.5 4.35936 24.5 5.25Z" fill="white"/>
</svg>
