<svg width="17" height="16" viewBox="0 0 17 16" fill="none" xmlns="http://www.w3.org/2000/svg">
<path d="M13.7909 2.27177C12.1621 0.701162 10.068 -0.0550542 7.79934 0.00311628C3.61106 0.177628 0.179005 3.60969 0.00449346 7.85613C-0.111848 11.4045 2.04046 14.6039 5.35618 15.8255C5.64703 15.9418 5.93788 16 6.17057 16C6.6941 16 7.15946 15.8255 7.56666 15.5346C8.2647 15.0693 8.6719 14.2549 8.6719 13.4405V12.1607C10.0098 11.8699 10.9987 10.7065 10.9987 9.31039V6.98357C10.9987 6.63455 10.766 6.40187 10.417 6.40187H9.83531V4.65675C9.83531 4.30773 9.60262 4.07505 9.2536 4.07505C8.90458 4.07505 8.6719 4.30773 8.6719 4.65675V6.40187H7.50849V4.65675C7.50849 4.30773 7.2758 4.07505 6.92678 4.07505C6.57776 4.07505 6.34508 4.30773 6.34508 4.65675V6.40187H5.76337C5.41435 6.40187 5.18167 6.63455 5.18167 6.98357V9.31039C5.18167 10.7065 6.17056 11.8699 7.50849 12.1607V13.4405C7.50849 13.9059 7.2758 14.3131 6.92678 14.6039C6.57776 14.8366 6.11239 14.8948 5.7052 14.7784C2.91302 13.6732 1.05156 10.9392 1.1679 7.85613C1.28424 4.30773 4.30911 1.28287 7.85751 1.16653C9.77713 1.10836 11.5804 1.8064 12.9765 3.08615C14.3726 4.42407 15.1288 6.22736 15.1288 8.14698C15.1288 11.0555 13.3255 13.6732 10.5915 14.6621C10.3007 14.7784 10.1262 15.1274 10.2425 15.4183C10.3588 15.7091 10.7079 15.8837 10.9987 15.7673C14.1399 14.6039 16.2922 11.5209 16.2922 8.14698C16.2922 5.93651 15.4197 3.84237 13.7909 2.27177Z" fill="#74B64A"/>
</svg>
