<svg width="16" height="16" viewBox="0 0 16 16" fill="none" xmlns="http://www.w3.org/2000/svg">
<path d="M8 16C3.58875 16 0 12.4113 0 8C0 3.58875 3.58875 0 8 0C12.4113 0 16 3.58875 16 8C16 12.4113 12.4113 16 8 16ZM8 1.33344C4.32406 1.33344 1.33344 4.32406 1.33344 8C1.33344 11.6759 4.32406 14.6666 8 14.6666C11.6759 14.6666 14.6666 11.6759 14.6666 8C14.6666 4.32406 11.6759 1.33344 8 1.33344Z" fill="#74B64A"/>
<path d="M7.33313 10.6666C7.20164 10.6667 7.07308 10.6277 6.96376 10.5547L4.96376 9.22124C4.81665 9.12315 4.71453 8.97064 4.67986 8.79726C4.6452 8.62388 4.68083 8.44382 4.77892 8.29671C4.87701 8.1496 5.02952 8.04748 5.2029 8.01281C5.37628 7.97815 5.55634 8.01378 5.70345 8.11187L7.20501 9.11187L10.1547 5.57218C10.2679 5.43634 10.4304 5.35102 10.6064 5.33499C10.7825 5.31896 10.9578 5.37354 11.0936 5.48671C11.2294 5.59988 11.3148 5.76238 11.3308 5.93846C11.3468 6.11454 11.2922 6.28978 11.1791 6.42562L7.84563 10.4256C7.78316 10.501 7.70485 10.5616 7.61627 10.6033C7.52769 10.6449 7.43101 10.6665 7.33313 10.6666Z" fill="#74B64A"/>
</svg>
