<svg width="21" height="18" viewBox="0 0 21 18" fill="none" xmlns="http://www.w3.org/2000/svg">
<path d="M10.0113 13.6627V12.7368C9.5475 12.6788 9.17155 12.5752 8.88167 12.4258C8.5918 12.2765 8.34056 12.0341 8.12975 11.702C7.91892 11.3682 7.79595 10.9624 7.76257 10.4828L8.69368 10.3071C8.76572 10.8043 8.89221 11.1697 9.07492 11.4034C9.33492 11.7337 9.64765 11.9164 10.0113 11.9533V9.00529C9.63008 8.93327 9.24182 8.78569 8.84302 8.56258C8.54786 8.39744 8.32123 8.16904 8.16137 7.87742C8.0015 7.58578 7.92244 7.2555 7.92244 6.8848C7.92244 6.22599 8.15609 5.69191 8.62165 5.28434C8.93438 5.0085 9.39818 4.84161 10.0113 4.78012V4.33739H10.5577V4.78012C11.0953 4.83107 11.5239 4.98918 11.8384 5.2527C12.2442 5.58825 12.4867 6.0503 12.5693 6.63708L11.6118 6.78115C11.5573 6.41748 11.4431 6.13814 11.2692 5.9449C11.097 5.75164 10.8599 5.62339 10.5577 5.56191V8.23229C11.0232 8.34999 11.3324 8.44135 11.4835 8.50636C11.7717 8.63284 12.0071 8.78745 12.188 8.96839C12.3707 9.1511 12.5113 9.3672 12.6079 9.61667C12.7063 9.86789 12.7555 10.1384 12.7555 10.4301C12.7555 11.0731 12.5499 11.6072 12.1423 12.0358C11.7348 12.4662 11.206 12.6946 10.5577 12.7262V13.6626H10.0113L10.0113 13.6627ZM10.0113 5.55137C9.65115 5.60583 9.36656 5.7499 9.15925 5.98355C8.95195 6.2172 8.84829 6.49304 8.84829 6.81277C8.84829 7.12725 8.93613 7.39252 9.11357 7.60511C9.291 7.81768 9.58967 7.9881 10.0113 8.11458V5.55137H10.0113ZM10.5577 11.9533C10.9178 11.9094 11.2147 11.753 11.4501 11.486C11.6856 11.2189 11.8033 10.8869 11.8033 10.4916C11.8033 10.156 11.7189 9.88549 11.5538 9.68169C11.3869 9.4779 11.0549 9.29519 10.5577 9.13357V11.9533H10.5577Z" fill="#E5E5E5"/>
<path fill-rule="evenodd" clip-rule="evenodd" d="M19.3165 9.85714C18.8849 14.4257 15.0382 18 10.3568 18C6.28938 18 2.85218 15.3019 1.73736 11.5978H3.5478C4.59418 14.3388 7.24811 16.2857 10.3568 16.2857C14.0906 16.2857 17.1683 13.477 17.5926 9.85714H16.3568L18.4996 7.28571L20.6425 9.85714H19.3165ZM1.51983 7.28571C2.32028 3.13505 5.9724 0 10.3568 0C14.1089 0 17.3248 2.29613 18.6759 5.55992H16.7808C15.5524 3.27088 13.1364 1.71429 10.3568 1.71429C6.92344 1.71429 4.04479 4.08912 3.27387 7.28571H4.35676L2.2139 9.85714L0.0710449 7.28571H1.51983Z" fill="#E5E5E5"/>
</svg>
