<svg width="19" height="16" viewBox="0 0 19 16" fill="none" xmlns="http://www.w3.org/2000/svg">
<path fill-rule="evenodd" clip-rule="evenodd" d="M10.3568 0C6.09676 0 2.64247 3.45429 2.64247 7.71429H0.0710449L3.40533 11.0486L3.46533 11.1686L6.92819 7.71429H4.35676C4.35676 4.39714 7.03962 1.71429 10.3568 1.71429C13.6739 1.71429 16.3568 4.39714 16.3568 7.71429C16.3568 11.0314 13.6739 13.7143 10.3568 13.7143C8.70247 13.7143 7.20247 13.0371 6.12247 11.9486L4.90533 13.1657C6.30247 14.5629 8.22247 15.4286 10.3568 15.4286C14.6168 15.4286 18.071 11.9743 18.071 7.71429C18.071 3.45429 14.6168 0 10.3568 0ZM9.49962 4.28571V8.57143L13.1425 10.7314L13.8025 9.63429L10.7853 7.84286V4.28571H9.49962Z" fill="#E5E5E5"/>
</svg>
