<svg width="24" height="24" viewBox="0 0 24 24" fill="none" xmlns="http://www.w3.org/2000/svg">
<path d="M20.8237 8.91L20.4487 3.5925C20.4428 3.51496 20.4129 3.44119 20.3632 3.38139C20.3135 3.3216 20.2464 3.27874 20.1712 3.25875L12.0937 1.125C12.0321 1.11005 11.9678 1.11005 11.9062 1.125L3.82871 3.25875C3.75356 3.27874 3.68649 3.3216 3.63677 3.38139C3.58705 3.44119 3.55716 3.51496 3.55122 3.5925L3.17622 8.91C3.08172 10.2962 3.2083 11.6886 3.55122 13.035C4.2405 15.7821 5.83005 18.2193 8.06621 19.9575L11.7712 22.7963C11.8368 22.8467 11.9172 22.8741 12 22.8741C12.0827 22.8741 12.1632 22.8467 12.2287 22.7963L15.9337 19.9575C18.1713 18.2223 19.7634 15.7879 20.4562 13.0425C20.7974 11.6932 20.9215 10.2983 20.8237 8.91Z" fill="white"/>
<path d="M19.3276 9.01875L19.0276 4.77C19.0216 4.69249 18.9917 4.61873 18.942 4.55891C18.8923 4.4991 18.8252 4.45628 18.7501 4.43625L12.0938 2.68877C12.0327 2.66997 11.9674 2.66997 11.9063 2.68877L5.25006 4.43625C5.17491 4.45628 5.10786 4.4991 5.05813 4.55891C5.00841 4.61873 4.97852 4.69249 4.97256 4.77L4.67256 9.01875C4.58548 10.2459 4.69562 11.479 4.99881 12.6713C5.60916 15.0849 7.00978 17.2248 8.97756 18.75L11.7713 20.8913C11.8369 20.9417 11.9173 20.9691 12.0001 20.9691C12.0828 20.9691 12.1633 20.9417 12.2288 20.8913L15.0226 18.75C16.9903 17.2248 18.391 15.0849 19.0013 12.6713C19.3045 11.479 19.4147 10.2459 19.3276 9.01875Z" fill="#F6271E"/>
<path d="M15.3822 15.0379C15.772 15.4277 16.3846 15.4092 16.7745 15.0193C17.1458 14.6481 17.1643 14.0354 16.7745 13.6456L13.5629 10.434L16.8302 7.16678C17.2015 6.7955 17.2014 6.20145 16.8302 5.83017C16.4589 5.45889 15.8648 5.45889 15.4936 5.83017L12.2263 9.09743L9.01473 5.88586C8.62489 5.49602 8.01228 5.51458 7.641 5.88586C7.25115 6.2757 7.23259 6.88832 7.62243 7.27816L10.834 10.4897L7.58531 13.7384C7.21403 14.1097 7.19546 14.7223 7.56674 15.0936C7.93802 15.4649 8.55063 15.4463 8.92191 15.075L12.1706 11.8263L15.3822 15.0379Z" fill="white"/>
</svg>
