<svg width="24" height="24" viewBox="0 0 24 24" fill="none" xmlns="http://www.w3.org/2000/svg">
<path d="M21.4849 10.499L21.8499 9.51899L20.8079 7.00399L19.8569 6.56999L18.7559 6.93699L18.4809 6.85099C18.1229 6.41099 17.7179 6.00699 17.2749 5.64699L17.1889 5.36999L17.5559 4.26799L17.1219 3.31699L14.6069 2.27499L13.6279 2.64099L13.1079 3.67999L12.8519 3.81399C12.2839 3.75499 11.7119 3.75399 11.1479 3.81199L10.8919 3.67899L10.3729 2.64199L9.3939 2.27499L6.8779 3.31699L6.4439 4.26799L6.8109 5.36799L6.7239 5.64399C6.2839 6.00199 5.8789 6.40699 5.5199 6.84999L5.2439 6.93599L4.1429 6.56899L3.1919 7.00299L2.1499 9.51899L2.5149 10.499L3.5539 11.019L3.6879 11.275C3.6289 11.842 3.6289 12.414 3.6859 12.979L3.5529 13.235L2.5159 13.754L2.1509 14.734L3.1929 17.249L4.1439 17.683L5.2439 17.317L5.5189 17.403C5.8769 17.843 6.2819 18.247 6.7249 18.607L6.8109 18.882L6.4439 19.984L6.8789 20.935L9.3939 21.977L10.3739 21.611L10.8929 20.573L11.1489 20.439C11.7169 20.498 12.2889 20.498 12.8539 20.44L13.1089 20.574L13.6279 21.611L14.6069 21.976L17.1219 20.934L17.5559 19.983L17.1899 18.883L17.2759 18.608C17.7169 18.249 18.1209 17.844 18.4799 17.402L18.7549 17.316L19.8569 17.683L20.8079 17.249L21.8499 14.733L21.4849 13.753L20.4459 13.233L20.3119 12.978C20.3709 12.411 20.3709 11.839 20.3139 11.273L20.4469 11.017L21.4849 10.499ZM19.7659 10.324L19.3629 11.096L19.3799 11.238C19.4499 11.824 19.4499 12.42 19.3779 13.009L19.3609 13.152L19.7649 13.925L20.7449 14.415L20.8559 14.713L20.0919 16.556L19.8029 16.688L18.7629 16.342L17.9309 16.603L17.8419 16.716C17.4769 17.183 17.0549 17.605 16.5909 17.97L16.4779 18.058L16.2169 18.89L16.5629 19.929L16.4309 20.218L14.5879 20.982L14.2899 20.871L13.7999 19.892L13.0279 19.488L12.8859 19.505C12.3009 19.575 11.7049 19.575 11.1139 19.503L10.9719 19.486L10.1989 19.89L9.7089 20.871L9.4109 20.982L7.5679 20.219L7.4359 19.93L7.7819 18.89L7.5209 18.058L7.4079 17.969C6.9399 17.602 6.5179 17.181 6.1539 16.717L6.0659 16.604L5.2349 16.343L4.1959 16.69L3.9069 16.558L3.1429 14.715L3.2539 14.417L4.0999 13.993L4.2509 13.892L4.6369 13.154L4.6199 13.012C4.5499 12.426 4.5499 11.83 4.6219 11.241L4.6389 11.098L4.2349 10.325L3.2549 9.83499L3.1429 9.53699L3.9069 7.69399L4.1959 7.56199L5.2359 7.90799L6.0679 7.64699L6.1569 7.53399C6.5229 7.06599 6.9439 6.64499 7.4079 6.27999L7.5209 6.19099L7.7809 5.35899L7.4359 4.32199L7.5679 4.03299L9.4109 3.26899L9.7089 3.37999L10.1989 4.35899L10.9709 4.76299L11.1129 4.74599C11.6989 4.67599 12.2949 4.67599 12.8839 4.74799L13.0269 4.76499L13.7999 4.35999L14.2909 3.37899L14.5889 3.26799L16.4319 4.03199L16.5639 4.32099L16.2179 5.36099L16.4779 6.19299L16.5909 6.28199C17.0579 6.64799 17.4799 7.06899 17.8449 7.53399L17.9329 7.64699L18.7649 7.90799L19.8039 7.56199L20.0929 7.69399L20.8569 9.53699L20.7459 9.83499L19.7659 10.324Z" fill="white"/>
<path d="M11.9939 6.99799C9.18994 6.99799 6.90894 9.27499 6.90894 12.075C6.90894 14.875 9.18994 17.152 11.9939 17.152C14.7979 17.152 17.0789 14.875 17.0789 12.075C17.0789 9.27499 14.7979 6.99799 11.9939 6.99799ZM11.9939 16.228C9.69994 16.228 7.83394 14.365 7.83394 12.075C7.83394 9.78499 9.69994 7.92199 11.9939 7.92199C14.2879 7.92199 16.1539 9.78499 16.1539 12.075C16.1539 14.365 14.2879 16.228 11.9939 16.228Z" fill="white"/>
</svg>
