<svg width="34" height="6" viewBox="0 0 34 6" fill="none" xmlns="http://www.w3.org/2000/svg">
<path fill-rule="evenodd" clip-rule="evenodd" d="M28.5 3.25C28.5 4.76878 29.7312 6 31.25 6C32.7688 6 34 4.76878 34 3.25C34 1.73122 32.7688 0.5 31.25 0.5C29.7312 0.5 28.5 1.73122 28.5 3.25ZM33.5 3.25C33.5 4.49264 32.4926 5.5 31.25 5.5C30.0074 5.5 29 4.49264 29 3.25C29 2.00736 30.0074 1 31.25 1C32.4926 1 33.5 2.00736 33.5 3.25Z" fill="white"/>
<path fill-rule="evenodd" clip-rule="evenodd" d="M21.5 3.25C21.5 4.76878 22.7312 6 24.25 6C25.7688 6 27 4.76878 27 3.25C27 1.73122 25.7688 0.5 24.25 0.5C22.7312 0.5 21.5 1.73122 21.5 3.25ZM26.5 3.25C26.5 4.49264 25.4926 5.5 24.25 5.5C23.0074 5.5 22 4.49264 22 3.25C22 2.00736 23.0074 1 24.25 1C25.4926 1 26.5 2.00736 26.5 3.25Z" fill="white"/>
<path fill-rule="evenodd" clip-rule="evenodd" d="M17.25 6C18.7688 6 20 4.76878 20 3.25C20 1.73122 18.7688 0.5 17.25 0.5C15.7312 0.5 14.5 1.73122 14.5 3.25C14.5 4.76878 15.7312 6 17.25 6Z" fill="white"/>
<path fill-rule="evenodd" clip-rule="evenodd" d="M10.25 6C11.7688 6 13 4.76878 13 3.25C13 1.73122 11.7688 0.5 10.25 0.5C8.73122 0.5 7.5 1.73122 7.5 3.25C7.5 4.76878 8.73122 6 10.25 6Z" fill="white"/>
<path fill-rule="evenodd" clip-rule="evenodd" d="M3.25 6C4.76878 6 6 4.76878 6 3.25C6 1.73122 4.76878 0.5 3.25 0.5C1.73122 0.5 0.5 1.73122 0.5 3.25C0.5 4.76878 1.73122 6 3.25 6Z" fill="white"/>
</svg>
