<svg width="13" height="10" viewBox="0 0 13 10" fill="none" xmlns="http://www.w3.org/2000/svg">
<path fill-rule="evenodd" clip-rule="evenodd" d="M6.49575 2.02088C8.43552 2.02088 10.2034 2.73545 11.5589 3.90718L12.5 2.86811C10.8946 1.47447 8.79789 0.5 6.49575 0.5C4.19711 0.5 2.1034 1.47151 0.5 2.86071L1.43915 3.90126C2.79364 2.73299 4.55848 2.02088 6.49575 2.02088ZM6.49575 5.02022C7.65832 5.02022 8.72042 5.44236 9.53961 6.1377L10.5352 5.03797C9.45164 4.10789 8.04217 3.50033 6.49575 3.50033C4.95233 3.50033 3.54386 4.10641 2.46126 5.03353L3.45539 6.13474C4.27408 5.44088 5.33469 5.02022 6.49575 5.02022ZM8.54348 7.23742C7.98919 6.77732 7.27546 6.45874 6.49525 6.45874C5.71654 6.45874 5.00381 6.77682 4.44952 7.23496L6.49525 9.5L8.54348 7.23742Z" fill="white"/>
</svg>
